<?xml version="1.0" encoding="UTF-8" standalone="no"?>
<!-- Generator: Adobe Illustrator 15.1.0, SVG Export Plug-In . SVG Version: 6.00 Build 0)  -->

<svg
   xmlns:dc="http://purl.org/dc/elements/1.1/"
   xmlns:cc="http://creativecommons.org/ns#"
   xmlns:rdf="http://www.w3.org/1999/02/22-rdf-syntax-ns#"
   xmlns:svg="http://www.w3.org/2000/svg"
   xmlns="http://www.w3.org/2000/svg"
   xmlns:sodipodi="http://sodipodi.sourceforge.net/DTD/sodipodi-0.dtd"
   xmlns:inkscape="http://www.inkscape.org/namespaces/inkscape"
   version="1.1"
   id="Layer_1"
   x="0px"
   y="0px"
   width="449.5"
   height="449.5"
   viewBox="0 0 449.5 449.5"
   enable-background="new 0 0 800 600"
   xml:space="preserve"
   inkscape:version="0.48+devel r10207"
   sodipodi:docname="bwlogo_x.svg"><metadata
   id="metadata41"><rdf:RDF><cc:Work
       rdf:about=""><dc:format>image/svg+xml</dc:format><dc:type
         rdf:resource="http://purl.org/dc/dcmitype/StillImage" /><dc:title></dc:title></cc:Work></rdf:RDF></metadata><defs
   id="defs39">
	

		
		
		
		
		
		
		
		
		
		
		
		
		
		
		
	</defs><sodipodi:namedview
   pagecolor="#ffffff"
   bordercolor="#666666"
   borderopacity="1"
   objecttolerance="10"
   gridtolerance="10"
   guidetolerance="10"
   inkscape:pageopacity="0"
   inkscape:pageshadow="2"
   inkscape:window-width="1366"
   inkscape:window-height="716"
   id="namedview37"
   showgrid="false"
   fit-margin-top="0"
   fit-margin-left="0"
   fit-margin-right="0"
   fit-margin-bottom="0"
   inkscape:zoom="0.68589358"
   inkscape:cx="276.99684"
   inkscape:cy="224.97281"
   inkscape:window-x="-8"
   inkscape:window-y="-8"
   inkscape:window-maximized="1"
   inkscape:current-layer="Layer_1" />
<path
   style="fill:#000000;fill-opacity:1;stroke:none"
   d="m 224.75,27.70109 c -1.52669,0 -3.05713,0.02025 -4.57552,0.0548 -1.53312,0.03488 -3.05125,0.09468 -4.57553,0.16439 -1.12835,0.05161 -2.24666,0.121283 -3.36999,0.191789 -0.69669,0.04371 -1.38757,0.08606 -2.08228,0.136991 -0.47585,0.03489 -0.9498,0.07133 -1.42471,0.109594 -1.10688,0.08919 -2.21357,0.166569 -3.3152,0.273983 -0.60314,0.0588 -1.20676,0.12756 -1.80829,0.191789 -1.31849,0.140763 -2.6348,0.299123 -3.94537,0.465772 -1.64264,0.208873 -3.27454,0.435883 -4.9043,0.684958 -1.23635,0.188952 -2.4701,0.390936 -3.69878,0.602764 -0.6592,0.113633 -1.31573,0.236011 -1.97268,0.356178 -0.83147,0.152092 -1.66546,0.303275 -2.49325,0.465772 -0.55768,0.109496 -1.11531,0.214589 -1.6713,0.32878 -0.67888,0.139389 -1.35116,0.292019 -2.02747,0.438374 -0.87633,0.189674 -1.7583,0.374075 -2.63025,0.575365 -0.0193,0.0045 -0.0355,0.02294 -0.0548,0.0274 -2.59386,0.599633 -5.17281,1.244341 -7.72634,1.945282 -0.3761,0.103252 -0.74812,0.223359 -1.12333,0.32878 -0.18036,0.05067 -0.36781,0.08582 -0.54796,0.136992 -1.11155,0.315788 -2.21176,0.651616 -3.3152,0.986341 -1.02616,0.31117 -2.04963,0.631555 -3.06862,0.958942 -0.74985,0.241026 -1.50075,0.490015 -2.24666,0.739755 -0.90879,0.304144 -1.80961,0.614568 -2.71244,0.931544 -0.1168,0.04101 -0.23947,0.06837 -0.35618,0.109593 -1.27797,0.451429 -2.54264,0.920424 -3.80837,1.397316 -0.19982,0.07531 -0.40326,0.14324 -0.60276,0.219187 -1.102,0.419338 -2.19537,0.849278 -3.2878,1.287722 -0.58557,0.235034 -1.17073,0.471878 -1.7535,0.712357 -0.61405,0.253389 -1.22477,0.507757 -1.83569,0.767154 -0.86303,0.366448 -1.71876,0.74498 -2.57544,1.123332 -0.52581,0.232189 -1.06572,0.448316 -1.58911,0.684959 -0.17482,0.07908 -0.34601,0.167029 -0.52056,0.246585 -1.27753,0.582151 -2.54564,1.172421 -3.80838,1.780892 -1.32292,0.63765 -2.63907,1.306529 -3.94536,1.972681 -0.10905,0.05559 -0.21984,0.108594 -0.32878,0.16439 -1.16689,0.597819 -2.32633,1.215417 -3.47959,1.83569 -0.8527,0.458556 -1.70293,0.926625 -2.54804,1.397315 -0.58737,0.327237 -1.16984,0.653291 -1.7535,0.986341 -0.19834,0.113135 -0.40486,0.214978 -0.60276,0.32878 -0.85592,0.492381 -1.70029,1.002095 -2.54805,1.506909 -0.88222,0.525171 -1.75698,1.050615 -2.63024,1.589104 -0.67044,0.4135 -1.335,0.839038 -2.00008,1.260327 -0.30824,0.195216 -0.62446,0.378491 -0.93154,0.575365 -0.57145,0.366436 -1.1313,0.751179 -1.6987,1.123332 -1.19473,0.783488 -2.3853,1.575094 -3.56178,2.383656 -1.06478,0.731786 -2.12868,1.467237 -3.17821,2.219266 -0.10146,0.07268 -0.20007,0.146277 -0.30138,0.219187 -0.99069,0.712699 -1.98222,1.433955 -2.95903,2.164469 -0.16582,0.124051 -0.32774,0.259018 -0.49317,0.383577 -1.13575,0.855004 -2.25352,1.724027 -3.36999,2.602843 -2.22594,1.7521 -4.428523,3.552992 -6.575606,5.397475 -1.081915,0.92943 -2.144287,1.869715 -3.205607,2.822029 -1.059434,0.950631 -2.112267,1.903769 -3.150809,2.876827 -1.037017,0.971628 -2.052816,1.965412 -3.068615,2.959021 -0.521752,0.510355 -1.045626,1.018228 -1.561706,1.534308 -0.488278,0.4884 -0.968963,0.986024 -1.452112,1.47951 -0.994232,1.015247 -1.986762,2.032142 -2.959022,3.068615 -0.968928,1.032922 -1.930088,2.069781 -2.876826,3.123412 -0.801996,0.892554 -1.597837,1.777876 -2.383656,2.685038 -0.148171,0.171079 -0.290782,0.348971 -0.438374,0.520568 -0.923469,1.073481 -1.839284,2.166995 -2.739835,3.260403 -0.903356,1.097174 -1.777727,2.198344 -2.657639,3.315204 -0.05997,0.0761 -0.131889,0.14297 -0.191789,0.21918 -1.595443,2.03017 -3.141446,4.09877 -4.657719,6.19203 -0.157349,0.2173 -0.30929,0.43959 -0.465772,0.65756 -0.17876,0.24891 -0.370338,0.48998 -0.547967,0.73976 -0.590839,0.8311 -1.175297,1.68004 -1.753494,2.52064 -0.725964,1.05518 -1.45867,2.10833 -2.164469,3.17821 -0.153483,0.23273 -0.285855,0.47893 -0.438374,0.71236 -0.705088,1.07871 -1.397903,2.16715 -2.082274,3.2604 -0.755318,1.20658 -1.489541,2.42007 -2.219266,3.64398 -0.732601,1.22873 -1.458039,2.45294 -2.164469,3.69878 -0.708368,1.24926 -1.400604,2.5149 -2.082275,3.78097 -0.637185,1.18344 -1.276956,2.36398 -1.890486,3.56178 -0.69448,1.35592 -1.363727,2.70847 -2.027477,4.08236 -1.875888,3.88179 -3.609454,7.84502 -5.233085,11.86348 -0.540777,1.33841 -1.077066,2.67475 -1.589104,4.02756 -3.071043,8.11376 -5.627006,16.4851 -7.61674,25.06948 -0.995397,4.29448 -1.838556,8.64465 -2.548046,13.04162 -1.66162,10.29766 -2.548047,20.85131 -2.548047,31.61769 0,16.62139 2.070035,32.74692 5.945442,48.16629 0.347516,1.38269 0.719371,2.76625 1.095934,4.13715 0.33909,1.2345 0.678751,2.47411 1.041137,3.69878 0.06751,0.22795 0.123516,0.45736 0.191788,0.68496 0.376905,1.25692 0.776938,2.50735 1.178129,3.75357 0.419041,1.30169 0.842493,2.60086 1.287722,3.89057 0.04156,0.12029 0.09522,0.236 0.136992,0.35618 0.437225,1.25854 0.88064,2.50677 1.342519,3.75357 0.983167,2.65395 2.030608,5.26467 3.123412,7.86333 1.627172,3.86933 3.37061,7.68615 5.233084,11.42511 0.623358,1.2514 1.268863,2.49006 1.917884,3.72617 0.621377,1.18345 1.245902,2.36527 1.890486,3.53439 0.12064,0.21881 0.234731,0.43926 0.356178,0.65756 0.582511,1.04711 1.179962,2.08814 1.780893,3.12341 0.701582,1.20866 1.410704,2.39698 2.137071,3.58918 2.165627,3.55449 4.442495,7.03685 6.822188,10.43877 0.798524,1.14155 1.616529,2.27374 2.438453,3.3974 0.747392,1.02177 1.507593,2.03452 2.274063,3.04121 0.15806,0.20757 0.306905,0.42325 0.465772,0.63017 0.757054,0.98621 1.526294,1.96027 2.301461,2.93162 0.857827,1.07493 1.723168,2.1492 2.602843,3.20561 0.881245,1.05829 1.782208,2.11144 2.685038,3.15081 1.822012,2.09754 3.681443,4.14627 5.589263,6.16462 0.945151,0.99992 1.911133,1.97908 2.876826,2.95903 0.893063,0.90625 1.774685,1.82352 2.685038,2.71243 0.110979,0.10836 0.244946,0.19329 0.356179,0.30138 2.94153,2.85878 5.95398,5.62955 9.068852,8.3017 1.050089,0.90084 2.109112,1.8061 3.178209,2.68504 2.134944,1.7552 4.312144,3.45772 6.520804,5.12349 17.10934,12.9039 36.37551,23.08205 57.18035,29.8916 6.31716,2.06764 12.7903,3.83226 19.37063,5.26048 0.2464,0.0537 0.49302,0.11168 0.73976,0.16439 1.21978,0.25982 2.44336,0.50263 3.67138,0.73976 1.34832,0.26035 2.69699,0.50705 4.05495,0.73975 1.16598,0.19981 2.33411,0.39614 3.50699,0.57537 1.56914,0.24088 3.13139,0.45399 4.71252,0.65756 0.70857,0.0908 1.42615,0.16334 2.13707,0.24658 0.76515,0.0901 1.53363,0.19276 2.30146,0.27399 0.6196,0.0652 1.24178,0.13234 1.86309,0.19178 1.12061,0.10777 2.24394,0.18515 3.36999,0.27399 0.60227,0.0473 1.20452,0.0951 1.80829,0.13699 0.51039,0.0356 1.02284,0.0779 1.53431,0.10959 1.25046,0.0769 2.49692,0.13831 3.75357,0.19179 1.41464,0.0602 2.82455,0.10677 4.24675,0.13699 1.42069,0.0304 2.84609,0.0548 4.27414,0.0548 108.82337,0 197.04891,-88.22554 197.04891,-197.04891 0,-1.27065 -0.004,-2.54344 -0.0273,-3.80837 -0.008,-0.42911 -0.0165,-0.85931 -0.0274,-1.28772 -0.0214,-0.84485 -0.0501,-1.67847 -0.0821,-2.52065 -0.0136,-0.35701 -0.0393,-0.71202 -0.0548,-1.06854 -0.0389,-0.89833 -0.086,-1.78987 -0.13699,-2.68503 -5.2e-4,-0.009 5.2e-4,-0.0182 0,-0.0274 -0.0719,-1.25694 -0.15118,-2.50308 -0.24658,-3.75357 -0.0955,-1.25545 -0.20983,-2.50481 -0.32878,-3.75358 -0.003,-0.0272 0.003,-0.0551 0,-0.0822 -0.0788,-0.82339 -0.1851,-1.64544 -0.27399,-2.46585 -0.0424,-0.39161 -0.0649,-0.7872 -0.10959,-1.17813 -0.0944,-0.82435 -0.19688,-1.64456 -0.30138,-2.46585 -0.0525,-0.41284 -0.10936,-0.82088 -0.16439,-1.23292 -0.16438,-1.23016 -0.33369,-2.44835 -0.52057,-3.67138 -0.005,-0.0372 -0.0217,-0.0724 -0.0274,-0.1096 -0.66733,-4.35051 -1.46402,-8.65274 -2.41105,-12.90462 -0.0101,-0.0453 -0.0173,-0.0916 -0.0274,-0.13699 -0.0348,-0.15559 -0.0744,-0.31031 -0.10959,-0.46577 -0.33834,-1.49677 -0.69634,-2.98229 -1.06853,-4.46593 -0.36737,-1.46439 -0.7508,-2.93255 -1.15073,-4.38374 -0.0452,-0.1638 -0.0914,-0.32953 -0.137,-0.49317 -0.0917,-0.32976 -0.18063,-0.65726 -0.27398,-0.98634 -0.36441,-1.28305 -0.73371,-2.56353 -1.12333,-3.83577 -0.0838,-0.27419 -0.16157,-0.54825 -0.24659,-0.82195 -0.41113,-1.32177 -0.84966,-2.63567 -1.28772,-3.94536 -0.073,-0.21868 -0.14539,-0.43921 -0.21919,-0.65756 -0.46348,-1.36956 -0.93212,-2.72647 -1.42471,-4.08235 -0.0563,-0.15527 -0.10769,-0.31069 -0.16439,-0.46577 -0.17523,-0.47854 -0.36915,-0.94793 -0.54797,-1.42472 -0.38529,-1.02878 -0.77618,-2.04818 -1.17813,-3.06861 -1.17623,-2.98618 -2.40992,-5.9384 -3.72617,-8.84967 -0.0253,-0.0559 -0.0569,-0.1085 -0.0822,-0.16439 -5.65314,-12.47189 -12.59081,-24.22956 -20.60356,-35.15207 -4.48275,-6.11064 -9.29709,-11.961299 -14.43893,-17.507548 -1.2824,-1.383262 -2.59678,-2.736416 -3.91796,-4.082354 -1.3257,-1.350533 -2.66372,-2.688089 -4.02756,-4.000159 -4.08917,-3.93392 -8.35151,-7.688677 -12.76763,-11.26072 -1.47171,-1.190412 -2.95969,-2.358546 -4.46593,-3.506989 -1.17731,-0.897657 -2.36386,-1.786109 -3.56178,-2.657639 -0.3318,-0.241395 -0.65299,-0.500386 -0.98634,-0.739756 -0.24456,-0.175673 -0.49436,-0.34599 -0.73976,-0.520568 -2.84535,-2.023462 -5.75802,-3.962529 -8.71267,-5.835848 -1.60414,-1.017064 -3.21442,-2.014881 -4.84951,-2.986422 -1.63897,-0.973839 -3.28993,-1.922216 -4.9591,-2.849429 -1.18827,-0.660076 -2.386,-1.309228 -3.58919,-1.945282 -0.72389,-0.382876 -1.43526,-0.77664 -2.16446,-1.150731 -0.0254,-0.01306 -0.0567,-0.01438 -0.0822,-0.02735 -1.42349,-0.729129 -2.85824,-1.44182 -4.30154,-2.137071 -3.40535,-1.640385 -6.87326,-3.183461 -10.38397,-4.630321 -0.0456,-0.01878 -0.0914,-0.03605 -0.13699,-0.0548 -0.0834,-0.0343 -0.16317,-0.0754 -0.24659,-0.109593 -1.68881,-0.691792 -3.38418,-1.35421 -5.09609,-2.000079 -1.67344,-0.631354 -3.34651,-1.248941 -5.04129,-1.835689 -0.13678,-0.04735 -0.27407,-0.08993 -0.41098,-0.136992 -1.81809,-0.625375 -3.63796,-1.235087 -5.47967,-1.808291 -0.009,-0.0026 -0.019,0.0026 -0.0274,0 -1.66011,-0.516438 -3.33528,-1.00614 -5.0139,-1.479511 -0.19104,-0.05384 -0.38409,-0.111111 -0.57537,-0.16439 -0.35411,-0.09869 -0.71362,-0.177226 -1.06853,-0.273983 -1.39983,-0.381454 -2.80729,-0.772157 -4.21935,-1.123333 -0.11831,-0.02942 -0.23777,-0.05298 -0.35618,-0.08219 -1.43968,-0.355211 -2.90437,-0.690392 -4.35633,-1.013738 -0.45557,-0.101405 -0.91317,-0.203138 -1.36992,-0.301382 -0.82154,-0.17674 -1.64054,-0.354114 -2.46585,-0.520569 -0.13697,-0.02762 -0.27391,-0.05486 -0.41098,-0.08219 -0.96327,-0.192132 -1.93593,-0.369944 -2.90422,-0.547967 -0.7292,-0.134026 -1.45989,-0.257604 -2.19187,-0.383577 -0.23784,-0.04093 -0.47422,-0.09691 -0.71236,-0.136991 -0.97319,-0.163801 -1.95363,-0.316304 -2.93162,-0.465772 -1.62659,-0.248597 -3.26487,-0.476423 -4.9043,-0.684959 -1.3177,-0.167611 -2.64706,-0.324339 -3.97276,-0.465772 -0.58187,-0.06207 -1.17013,-0.107393 -1.7535,-0.16439 -1.40516,-0.137287 -2.80568,-0.275986 -4.21934,-0.383577 -1.35503,-0.103127 -2.7198,-0.198423 -4.08236,-0.273983 -0.64857,-0.03594 -1.29505,-0.05254 -1.94528,-0.0822 -0.50401,-0.023 -1.00192,-0.0356 -1.50691,-0.0548 -0.50389,-0.01916 -1.00205,-0.06683 -1.50691,-0.08219 -0.76836,-0.02336 -1.5583,-0.04026 -2.32886,-0.0548 -0.24569,-0.0046 -0.49384,0.0037 -0.73975,0 -1.01613,-0.01545 -2.02141,-0.0274 -3.04122,-0.0274 z m 0,14.466327 c 76.63681,0 142.24436,47.211151 169.32178,114.141513 -0.13276,0.0622 -0.23934,0.13175 -0.38357,0.19179 0.21655,8.82358 -10.0712,9.76959 -17.53495,14.02795 -9.92039,5.66116 -20.91567,16.41446 -28.93265,19.28844 -7.16741,-8.02925 -8.48165,-21.91254 -15.78145,-29.8094 -7.34714,4.31096 -16.97031,7.27349 -21.91868,14.02795 -2.64602,3.6122 -2.49522,8.74818 -5.26048,12.27446 -4.54681,5.7988 -12.20432,7.55756 -15.78145,14.02795 -14.16034,-3.95851 -22.31759,-13.92099 -40.33036,-14.02795 -2.8731,-5.77952 -6.28448,-8.84825 -10.52097,-14.9047 -0.23321,-0.79346 -0.98371,-2.09104 -0.87674,-2.63024 0.128,-0.6374 -1.51915,-3.89585 -1.86196,-4.69106 -0.82064,-1.90604 -0.95942,-2.88316 -3.39853,-5.82991 -2.1866,-2.64164 -4.97115,-6.13547 -7.01397,-7.89072 -5.19911,-4.46878 -10.37842,-6.73167 -15.78145,-14.02795 -5.61469,3.44473 -9.15919,7.04048 -13.77487,13.40428 -4.61568,6.3638 -8.70843,14.087 -12.52754,21.6656 -4.94836,0.39892 -13.12754,-3.11684 -17.53495,-6.13723 -2.02967,-1.94901 0.29722,-3.41844 0,-6.13723 -1.77366,-2.86872 -5.5612,-4.78441 -7.89072,-7.89072 -4.64851,-6.20124 -7.50846,-17.80148 -17.53494,-18.41169 -5.47704,-0.33317 -12.73738,5.42092 -18.41169,8.76747 -5.8444,3.44649 -12.19994,6.21263 -14.9047,11.39771 -4.27414,-2.1717 -7.50408,-5.09653 -13.151208,-3.50699 -4.988691,1.40367 -8.545654,11.89132 -15.781447,14.02796 -7.27865,2.1489 -17.312336,-0.37917 -24.905098,1.20552 C 77.110506,93.379893 144.94872,42.167417 224.75,42.167417 z m 66.49579,35.672651 c -9.17393,0.0448 -10.61446,13.223424 -18.54868,14.658115 -4.53191,0.819759 -14.79248,-3.779657 -23.67217,-4.383735 -9.49079,-0.645286 -17.59807,0.659313 -22.79543,4.383735 -3.98657,2.856442 -10.34386,11.101367 -8.76747,18.411687 1.1047,5.12283 15.36587,15.51053 24.54892,15.78145 4.38987,0.12888 6.59051,-2.34618 10.52096,-2.63024 0.0491,2.97743 -0.82414,3.6271 1.7535,7.01397 6.01536,4.50648 19.22882,4.50035 26.30241,0.87675 9.45923,-0.45065 11.43541,6.78865 16.6582,8.76747 12.33057,4.67131 21.34703,-6.60103 30.68614,0.87675 5.9575,-8.7289 22.7586,-4.51525 24.54892,-15.78145 1.06876,-6.72027 -5.50685,-15.98836 -13.1512,-17.53494 -6.54229,-1.32389 -12.76983,2.74071 -19.28844,0.87675 -1.52905,-11.23727 -8.03276,-12.606749 -14.02795,-19.288438 -3.06862,-3.420191 -4.08652,-8.054676 -7.01398,-9.644218 -3.11684,-1.692561 -5.63667,-2.393993 -7.75373,-2.383656 z m -0.1096,7.479748 c 1.92245,-0.131661 2.54969,1.058015 4.35634,1.041137 0.99949,1.923583 2.58245,2.304136 3.75077,6.774301 8.54163,5.912212 11.70891,15.759856 19.04466,23.035096 11.78961,0.0552 22.30532,-2.59692 26.30241,6.13723 -2.93097,10.99266 -17.314,7.70924 -27.17916,8.76747 -4.66342,0.49975 -8.46587,4.04531 -13.15121,3.50699 -4.81071,-0.55323 -6.51072,-4.88786 -11.39771,-7.01398 -3.18522,-1.38613 -9.62142,-2.70914 -13.15121,-2.63024 -9.31193,0.20867 -15.95241,7.8013 -20.16518,-2.63024 0.14116,-4.4302 3.63938,-7.73027 2.63024,-13.1512 -2.43297,-13.078439 -31.92061,-15.864741 -25.42566,0.87674 5.52175,1.42998 3.89363,-4.28992 7.89072,-4.38373 4.72304,-0.0465 7.213,2.13926 9.64422,4.38373 -2.54345,4.45651 -6.10655,9.43994 -11.39771,9.64422 -6.39324,0.24637 -16.73623,-9.08222 -16.6582,-14.02795 0.1017,-6.387103 8.6456,-10.889199 16.6582,-11.397713 9.98001,-0.633011 18.51163,6.775503 28.0559,6.137233 10.69018,-0.714552 13.9473,-9.955466 19.28844,-14.904704 0.33502,-0.07908 0.62951,-0.145584 0.90414,-0.16439 z M 155.213,88.114448 c -11.97023,0.383138 -15.56753,10.570939 -22.79543,14.904702 -8.58686,1.90429 -20.65178,2.46804 -19.28843,12.27446 0.94338,6.77988 13.09684,9.35401 23.67217,9.64421 5.61995,0.15431 11.06192,-1.3949 15.78144,-0.87674 6.93507,0.76189 10.80767,4.75284 14.90471,5.26048 11.24165,1.3914 23.00759,-3.88925 22.79542,-12.27446 -0.11924,-4.72216 -6.20562,-8.14498 -10.52097,-14.02795 -1.88325,-2.56712 -2.46979,-6.4476 -5.26048,-8.767473 -3.60781,-2.997598 -14.28835,-6.296797 -19.28843,-6.137229 z m 0,7.205765 c 3.96086,-0.02472 8.02464,1.995748 11.39771,3.3152 -5.5051,2.605697 -9.06294,4.781777 -7.89073,11.397707 0.88377,4.99045 6.86318,8.37469 11.39772,7.01398 2.66706,-4.67306 -2.86784,-5.69184 -3.50699,-9.64422 9.71523,-0.94776 12.08859,5.44636 16.65819,9.64422 -6.80969,11.4319 -19.32876,1.14854 -28.93265,0 -10.0598,-1.2029 -23.72653,2.74159 -32.43964,-2.63024 2.26288,-5.62784 13.66848,-2.11296 17.53494,-6.13723 3.04757,-4.25836 8.46499,-6.14687 10.52096,-11.397712 1.69076,-1.107165 3.46009,-1.550448 5.26049,-1.561705 z M 138.99317,140.1987 c 6.65546,0.0272 9.65214,15.06597 14.46633,18.93226 -0.71805,4.83438 -4.96151,6.14424 -7.01397,9.64422 -7.3375,1.23972 -13.42739,-3.49472 -18.41169,-2.63024 -7.25246,1.25813 -6.61155,7.97313 -11.39772,13.1512 -11.52045,-6.03465 -20.632486,3.12561 -31.562892,5.26049 8.031004,-8.91915 19.517272,-14.38392 28.055912,-22.79543 0.70315,-3.04143 -1.30548,-3.37021 -0.87675,-6.13723 5.65239,-4.42757 16.09532,-11.10838 24.54892,-14.9047 0.7728,-0.34702 1.50337,-0.52338 2.19186,-0.52057 z m 67.9479,6.6578 c 16.1567,8.97701 25.04955,25.21788 32.43965,42.96061 -7.68557,-1.02843 -13.78159,-3.32813 -21.91868,0 -3.2238,1.31863 -4.09704,4.1172 -7.01398,6.13723 -1.23796,0.85746 -4.07512,1.35633 -6.13723,2.63024 -2.76701,1.70966 -13.50278,8.88057 -15.78144,8.76747 -5.92769,-0.29546 -6.52213,-5.81897 -10.52097,-9.64422 -2.73983,-1.35194 -8.23265,0.05 -8.76747,-3.50699 -0.42172,-4.22066 3.43071,-4.16805 6.13723,-5.26048 3.9287,-3.66919 6.62821,-8.56845 12.27446,-10.52096 4.40565,-12.54538 10.55603,-23.34515 19.28843,-31.5629 z M 97.292891,157.70625 c 1.23524,-2e-5 2.463002,0.67005 3.561789,2.30146 -4.076878,8.62894 -13.323929,12.44367 -20.165187,18.41169 -6.603659,5.76022 -13.854358,11.52659 -17.534942,20.16518 4.514371,1.7798 7.385718,0.0552 9.644218,-2.63024 12.291118,-1.73684 20.63512,-7.42079 31.562891,-10.52097 4.16981,1.80961 6.38448,3.10719 10.52097,2.63024 7.21475,-0.83291 11.07156,-9.30579 14.02795,-14.02795 11.64847,4.47316 23.50472,3.94098 30.68615,-4.38374 3.16681,4.43196 9.69858,5.49809 14.9047,7.89073 -6.38447,5.21051 -10.43066,10.93128 -15.78145,17.53494 -5.98292,7.38396 -13.91339,11.76379 -19.9121,18.83651 -2.18836,2.57939 -5.49461,6.21 -7.7461,8.76747 -6.47039,7.34802 -18.07292,13.50231 -28.45361,18.86362 -3.466658,1.78944 -9.552378,4.9148 -12.80774,6.36319 -12.158028,5.40646 -30.828164,5.39792 -44.86578,8.6511 -1.814077,-10.32785 -2.767233,-20.96177 -2.767233,-31.80948 0,-15.79511 2.010346,-31.11034 5.781052,-45.72784 5.275781,-3.08553 11.065284,-6.9005 16.082829,-8.49349 4.18033,-1.32739 10.09925,0.0964 14.904701,-0.87675 3.540305,-0.7163 5.763542,-2.36659 9.084985,-4.86719 3.321433,-2.50058 5.566186,-7.07844 9.271907,-7.07848 z m 232.392779,11.94567 c 0.61284,9.41101 15.16685,20.45013 3.50699,26.30242 -5.98906,-3.36233 -7.9749,-10.72876 -16.6582,-11.39771 0.47958,-8.87269 5.96451,-12.74089 13.15121,-14.90471 z m 55.23506,3.50699 c 3.60031,-1.83132 12.29054,9.13439 18.2747,12.79503 2.70604,12.50422 4.13715,25.482 4.13715,38.79606 0,4.54144 -0.16726,9.04912 -0.49317,13.50738 -6.7928,-2.52461 -17.13065,-7.82439 -21.04193,-10.74015 -9.05855,-6.75446 -18.08817,-10.43592 -27.17916,-17.53494 -4.12685,-3.22292 -7.54002,-6.70624 -7.89072,-12.27446 9.99842,-9.58284 21.83851,-18.26467 34.19313,-24.54892 z m -70.08497,19.26104 c 1.40123,-0.004 2.85218,0.27535 4.32894,0.90415 5.2675,2.24359 5.60066,7.68644 11.39772,11.39771 4.54593,-0.71543 6.8395,-3.68146 11.39771,-4.38374 4.35217,8.79202 10.29213,13.83244 19.28843,20.16519 11.37258,8.00469 30.28449,19.65358 44.65931,26.95997 -2.09413,16.87765 -6.4731,33.04175 -12.84983,48.16629 -5.98116,-1.11524 -14.34773,-5.2872 -17.78152,-6.73999 -9.25056,-3.91731 -18.11447,-8.031 -28.05591,-11.39771 -14.35761,-4.86332 -22.62446,-12.62779 -32.43964,-22.79543 2.46015,-10.99967 25.02499,1.11172 29.8094,-8.76747 1.07752,-27.05992 -35.58103,-26.53212 -49.09784,-39.45362 5.32624,-5.77379 11.77662,-14.03298 19.34323,-14.05535 z m -62.8518,0.87675 c 0.4668,-0.0208 0.9402,-0.002 1.42471,0.0274 2.74247,0.16571 6.90438,3.45965 11.39771,5.26049 8.02487,3.2159 14.69078,5.72077 21.91868,10.52096 6.02588,4.00147 10.14221,5.21402 12.27446,11.39771 17.47883,2.10157 31.27269,7.88897 38.57687,20.16519 -4.87822,3.60869 -13.98499,2.72142 -20.16518,0.87674 -7.06045,4.49421 -15.21156,15.72709 -27.17916,9.64422 0.81976,-5.59014 1.003,-10.30616 -0.87675,-14.02795 -2.08403,-4.1286 -10.75155,-9.68017 -16.65819,-10.52097 -10.66651,-1.51852 -23.43458,5.72867 -23.67217,14.02796 -0.45153,15.85772 30.07505,11.5941 22.79542,-2.63025 -6.25997,-0.24198 -7.85916,8.26948 -14.02795,5.26049 -1.39579,-19.05522 38.9337,-5.94259 22.79542,9.64421 -9.24968,-3.33339 -14.33657,6.89036 -21.04193,7.89073 -5.02376,0.74874 -12.26043,-0.74699 -14.9047,-2.63024 -4.92118,-3.50787 -3.05634,-10.49379 -7.01398,-16.6582 -4.91241,0.39366 -4.66429,5.44548 -7.89072,7.89073 -6.75095,5.11582 -16.20404,3.87785 -27.17916,5.26048 -1.76314,-2.6206 -0.49536,-8.27299 -0.87675,-12.27446 3.60782,-3.15892 7.34276,-0.79696 12.27446,-2.63024 -0.14905,-6.28014 -8.66226,-4.19699 -7.01398,-12.27446 5.70237,-5.19297 15.03797,5.59891 19.28844,-1.7535 0.17184,-4.26362 -6.94734,-1.23621 -7.89072,-4.38373 -0.83817,-8.14498 10.39208,-4.22066 13.1512,-8.76747 -0.52868,-4.91242 0.4638,-8.30455 1.7535,-11.39771 6.61423,-1.93981 11.73839,-7.60592 18.74047,-7.91813 z m -85.42805,19.26104 c 13.03203,0.14426 27.46657,4.91526 35.12468,12.32925 -5.39725,30.25654 -7.81532,63.49403 -7.89072,99.07242 15.24137,-0.39103 35.6459,-6.17317 49.09784,0 1.79996,-6.23367 5.92856,-16.42235 5.26048,-24.54892 -0.43224,-5.271 -3.96728,-7.46111 -3.50699,-11.39771 9.98703,2.58027 18.21793,6.91578 23.67217,14.02796 -1.54132,7.72326 -4.79756,18.19601 -9.64422,29.8094 -3.51488,8.42115 -8.80867,24.30255 -16.65819,22.79542 -8.031,-1.5422 -4.36533,-13.79211 -2.63024,-21.04193 -4.77564,-3.18697 -11.17064,-1.75349 -17.53494,-1.75349 -6.75797,0 -13.70005,-0.44627 -19.28844,0 -29.31316,2.33741 -52.77667,15.41409 -72.77001,26.30241 -4.80896,-3.3746 -9.53375,-6.83337 -12.27446,-12.27446 5.1053,-8.27386 11.29075,-23.25133 9.64422,-36.82338 -0.64529,-5.3201 -3.86383,-8.72188 -3.50699,-13.1512 15.16071,4.00761 19.59004,19.25161 15.78145,37.70012 13.6641,0.17973 29.45432,-5.00096 42.96061,-7.89072 0.0289,-3.45789 -2.45635,-6.40552 -2.88333,-10.52097 -0.43311,-4.18033 0.74669,-8.41502 1.12983,-13.1512 1.3046,-16.12514 1.31249,-44.91576 0,-61.3723 -1.21342,-15.22471 -7.02888,-21.76262 -16.65819,-28.05591 0.854,-0.0319 1.70664,-0.0644 2.57544,-0.0548 z"
   id="path3193"
   inkscape:connector-curvature="0"
   sodipodi:nodetypes="ssscscccsscsccccccccccccccccsscccccccccccccccsccccsssssccsscccccccccccssssccsssssssccsccssssscssssccsssssccssssccssccccccccscsscccccccscsccccccscsscccccccccsccsssssssccsssccsscccssccccccsccccccsssssssccscccssscccccccccccsccczcccccccccsssccscccccccccccssccccccccccccccccccscccccccccccscccccccccsccccccccscscccccccccscccccccccscccccscccczcccccsscccccscccccccccccccccccccccccccccccccccccccccccccccccccsccccccccsccccc" />
</svg>